<svg width="1806.58759765625px" height="124.00000610351562px" xmlns="http://www.w3.org/2000/svg" viewBox="-653.293798828125 12.999996948242192 1806.58759765625 124.00000610351562" style="background: rgb(255, 255, 255);" preserveAspectRatio="xMidYMid"><defs><linearGradient id="editing-gradient-gradient" x1="0" x2="1" y1="0.5" y2="0.5" gradientUnits="objectBoundingBox"><stop offset="0" stop-color="#000000"></stop><stop offset="1" stop-color="#000000"></stop></linearGradient></defs><g><g transform="translate(-416.97999000549316, 99.09499168395996)"><path d="M28.10-44.86L31.68-44.86L31.68-11.90L31.68-11.90Q31.68-5.44 27.74-2.50L27.74-2.50L27.74-2.50Q23.81 0.45 18.24 0.45L18.24 0.45L18.24 0.45Q12.67 0.45 8.70-2.50L8.70-2.50L8.70-2.50Q4.74-5.44 4.74-11.90L4.74-11.90L4.74-44.86L8.32-44.86L8.32-11.39L8.32-11.39Q8.32-7.49 11.17-5.12L11.17-5.12L11.17-5.12Q14.02-2.75 18.18-2.75L18.18-2.75L18.18-2.75Q22.34-2.75 25.22-5.12L25.22-5.12L25.22-5.12Q28.10-7.49 28.10-11.39L28.10-11.39L28.10-44.86ZM42.24-11.39L42.24-11.39Q42.43-9.22 43.87-7.23L43.87-7.23L43.87-7.23Q45.31-5.25 47.84-4L47.84-4L47.84-4Q50.37-2.75 53.63-2.75L53.63-2.75L53.63-2.75Q58.56-2.75 61.86-4.96L61.86-4.96L61.86-4.96Q65.15-7.17 65.15-11.97L65.15-11.97L65.15-11.97Q65.15-14.78 63.55-16.67L63.55-16.67L63.55-16.67Q61.95-18.56 59.58-19.68L59.58-19.68L59.58-19.68Q57.22-20.80 53.12-22.27L53.12-22.27L53.12-22.27Q48.70-23.81 46.05-25.12L46.05-25.12L46.05-25.12Q43.39-26.43 41.57-28.67L41.57-28.67L41.57-28.67Q39.74-30.91 39.74-34.43L39.74-34.43L39.74-34.43Q39.74-37.25 41.34-39.78L41.34-39.78L41.34-39.78Q42.94-42.30 46.18-43.87L46.18-43.87L46.18-43.87Q49.41-45.44 54.14-45.44L54.14-45.44L54.14-45.44Q57.28-45.44 59.33-44.99L59.33-44.99L59.33-44.99Q61.38-44.54 63.49-43.52L63.49-43.52L62.40-40.13L62.40-40.13Q58.75-41.98 54.27-41.98L54.27-41.98L54.27-41.98Q49.34-41.98 46.40-39.94L46.40-39.94L46.40-39.94Q43.46-37.89 43.46-34.24L43.46-34.24L43.46-34.24Q43.46-31.94 44.93-30.37L44.93-30.37L44.93-30.37Q46.40-28.80 48.54-27.84L48.54-27.84L48.54-27.84Q50.69-26.88 54.53-25.54L54.53-25.54L54.53-25.54Q59.20-23.94 62.08-22.56L62.08-22.56L62.08-22.56Q64.96-21.18 66.98-18.66L66.98-18.66L66.98-18.66Q68.99-16.13 68.99-12.29L68.99-12.29L68.99-12.29Q68.99-6.40 65.25-2.85L65.25-2.85L65.25-2.85Q61.50 0.70 53.70 0.70L53.70 0.70L53.70 0.70Q48.96 0.70 45.60-1.06L45.60-1.06L45.60-1.06Q42.24-2.82 40.48-5.60L40.48-5.60L40.48-5.60Q38.72-8.38 38.59-11.39L38.59-11.39L42.24-11.39ZM77.12 0L77.12-44.80L98.50-44.80L98.50-41.47L80.70-41.47L80.70-26.43L92.93-26.43L91.71-22.91L80.70-22.91L80.70-3.20L98.37-3.20L98.37 0L77.12 0ZM131.07 0L125.63-15.87L125.63-15.87Q124.48-15.68 123.07-15.68L123.07-15.68L110.46-15.68L110.46 0L106.88 0L106.88-44.80L122.62-44.80L122.62-44.80Q128.70-44.80 131.68-41.09L131.68-41.09L131.68-41.09Q134.66-37.38 134.66-31.10L134.66-31.10L134.66-31.10Q134.66-26.30 133.60-22.59L133.60-22.59L133.60-22.59Q132.54-18.88 129.02-16.96L129.02-16.96L134.72 0L131.07 0ZM123.14-19.20L123.14-19.20Q126.72-19.20 128.48-21.12L128.48-21.12L128.48-21.12Q130.24-23.04 130.66-25.47L130.66-25.47L130.66-25.47Q131.07-27.90 131.07-30.91L131.07-30.91L131.07-30.91Q131.07-36.16 128.90-38.78L128.90-38.78L128.90-38.78Q126.72-41.41 122.88-41.41L122.88-41.41L110.46-41.41L110.46-19.20L123.14-19.20ZM141.63-22.53L141.63-22.53Q140.80-22.53 140.16-23.17L140.16-23.17L140.16-23.17Q139.52-23.81 139.52-24.64L139.52-24.64L139.52-24.64Q139.52-25.54 140.16-26.14L140.16-26.14L140.16-26.14Q140.80-26.75 141.63-26.75L141.63-26.75L141.63-26.75Q142.53-26.75 143.14-26.14L143.14-26.14L143.14-26.14Q143.74-25.54 143.74-24.64L143.74-24.64L143.74-24.64Q143.74-23.81 143.14-23.17L143.14-23.17L143.14-23.17Q142.53-22.53 141.63-22.53L141.63-22.53ZM141.63-7.10L141.63-7.10Q140.80-7.10 140.16-7.74L140.16-7.74L140.16-7.74Q139.52-8.38 139.52-9.22L139.52-9.22L139.52-9.22Q139.52-10.11 140.16-10.72L140.16-10.72L140.16-10.72Q140.80-11.33 141.63-11.33L141.63-11.33L141.63-11.33Q142.53-11.33 143.14-10.72L143.14-10.72L143.14-10.72Q143.74-10.11 143.74-9.22L143.74-9.22L143.74-9.22Q143.74-8.38 143.14-7.74L143.14-7.74L143.14-7.74Q142.53-7.10 141.63-7.10L141.63-7.10ZM163.97 0L163.97 0Q166.08 0 167.65-1.73L167.65-1.73L167.65-1.73Q169.22-3.46 169.22-7.30L169.22-7.30L169.22-41.54L164.93-41.66L164.93-44.80L172.86-44.80L172.86-7.55L172.86-7.55Q172.86-2.82 170.72-0.22L170.72-0.22L170.72-0.22Q168.58 2.37 164.80 2.37L164.80 2.37L163.97 0ZM206.53-11.84L206.53-11.84Q206.53-5.38 202.59-2.34L202.59-2.34L202.59-2.34Q198.66 0.70 193.15 0.70L193.15 0.70L193.15 0.70Q189.70 0.70 186.62-0.54L186.62-0.54L186.62-0.54Q183.55-1.79 181.60-4.61L181.60-4.61L181.60-4.61Q179.65-7.42 179.65-11.84L179.65-11.84L179.65-32.45L179.65-32.45Q179.65-39.04 183.26-42.43L183.26-42.43L183.26-42.43Q186.88-45.82 193.22-45.82L193.22-45.82L193.22-45.82Q199.55-45.82 203.04-42.24L203.04-42.24L203.04-42.24Q206.53-38.66 206.53-32.38L206.53-32.38L206.53-11.84ZM203.01-33.02L203.01-33.02Q203.01-37.70 200.29-40.06L200.29-40.06L200.29-40.06Q197.57-42.43 193.09-42.43L193.09-42.43L193.09-42.43Q188.61-42.43 185.92-40.06L185.92-40.06L185.92-40.06Q183.23-37.70 183.23-33.02L183.23-33.02L183.23-11.90L183.23-11.90Q183.23-7.36 186.02-5.02L186.02-5.02L186.02-5.02Q188.80-2.69 193.09-2.69L193.09-2.69L193.09-2.69Q197.44-2.69 200.22-4.96L200.22-4.96L200.22-4.96Q203.01-7.23 203.01-11.97L203.01-11.97L203.01-33.02ZM243.65 0L219.33-38.21L219.33 0L215.74 0L215.74-44.80L219.33-44.80L243.65-6.59L243.65-44.80L247.23-44.80L247.23 0L243.65 0ZM281.60 0L276.48-15.68L261.89-15.68L256.90 0L253.12 0L267.46-44.80L270.85-44.80L285.44 0L281.60 0ZM269.12-39.23L262.91-19.20L275.52-19.20L269.12-39.23ZM296.96 0L296.96-41.60L286.08-41.60L286.08-44.80L311.81-44.80L311.81-41.60L300.54-41.60L300.54 0L296.96 0ZM340.74 0L340.74-22.91L320.38-22.91L320.38 0L316.80 0L316.80-44.80L320.38-44.80L320.38-26.43L340.74-26.43L340.74-44.80L344.32-44.80L344.32 0L340.74 0ZM378.69 0L373.57-15.68L358.98-15.68L353.98 0L350.21 0L364.54-44.80L367.94-44.80L382.53 0L378.69 0ZM366.21-39.23L360.00-19.20L372.61-19.20L366.21-39.23ZM416.06 0L391.74-38.21L391.74 0L388.16 0L388.16-44.80L391.74-44.80L416.06-6.59L416.06-44.80L419.65-44.80L419.65 0L416.06 0ZM445.38 0L445.38 0Q444.54 0 443.90-0.64L443.90-0.64L443.90-0.64Q443.26-1.28 443.26-2.11L443.26-2.11L443.26-2.11Q443.26-3.01 443.90-3.62L443.90-3.62L443.90-3.62Q444.54-4.22 445.38-4.22L445.38-4.22L445.38-4.22Q446.27-4.22 446.88-3.62L446.88-3.62L446.88-3.62Q447.49-3.01 447.49-2.11L447.49-2.11L447.49-2.11Q447.49-1.28 446.88-0.64L446.88-0.64L446.88-0.64Q446.27 0 445.38 0L445.38 0ZM455.23 0L455.23-44.80L469.38-44.80L469.38-44.80Q474.62-44.80 477.63-42.11L477.63-42.11L477.63-42.11Q480.64-39.42 480.64-33.92L480.64-33.92L480.64-33.92Q480.64-31.42 479.81-29.18L479.81-29.18L479.81-29.18Q478.98-26.94 476.42-25.22L476.42-25.22L476.35-25.09L476.35-25.02L476.35-25.02Q479.17-23.74 481.06-20.86L481.06-20.86L481.06-20.86Q482.94-17.98 482.94-13.38L482.94-13.38L482.94-13.38Q482.94-7.87 479.97-3.94L479.97-3.94L479.97-3.94Q476.99 0 469.95 0L469.95 0L455.23 0ZM469.25-26.43L469.25-26.43Q472.83-26.43 474.88-28.35L474.88-28.35L474.88-28.35Q476.93-30.27 476.93-33.92L476.93-33.92L476.93-33.92Q476.93-41.41 468.86-41.41L468.86-41.41L458.82-41.41L458.82-26.43L469.25-26.43ZM469.82-3.39L469.82-3.39Q474.11-3.39 476.61-5.70L476.61-5.70L476.61-5.70Q479.10-8 479.10-13.63L479.10-13.63L479.10-13.63Q479.10-18.11 476.67-20.51L476.67-20.51L476.67-20.51Q474.24-22.91 470.91-22.91L470.91-22.91L458.82-22.91L458.82-3.39L469.82-3.39ZM508.86-11.39L508.86-11.39Q509.06-9.22 510.50-7.23L510.50-7.23L510.50-7.23Q511.94-5.25 514.46-4L514.46-4L514.46-4Q516.99-2.75 520.26-2.75L520.26-2.75L520.26-2.75Q525.18-2.75 528.48-4.96L528.48-4.96L528.48-4.96Q531.78-7.17 531.78-11.97L531.78-11.97L531.78-11.97Q531.78-14.78 530.18-16.67L530.18-16.67L530.18-16.67Q528.58-18.56 526.21-19.68L526.21-19.68L526.21-19.68Q523.84-20.80 519.74-22.27L519.74-22.27L519.74-22.27Q515.33-23.81 512.67-25.12L512.67-25.12L512.67-25.12Q510.02-26.43 508.19-28.67L508.19-28.67L508.19-28.67Q506.37-30.91 506.37-34.43L506.37-34.43L506.37-34.43Q506.37-37.25 507.97-39.78L507.97-39.78L507.97-39.78Q509.57-42.30 512.80-43.87L512.80-43.87L512.80-43.87Q516.03-45.44 520.77-45.44L520.77-45.44L520.77-45.44Q523.90-45.44 525.95-44.99L525.95-44.99L525.95-44.99Q528.00-44.54 530.11-43.52L530.11-43.52L529.02-40.13L529.02-40.13Q525.38-41.98 520.90-41.98L520.90-41.98L520.90-41.98Q515.97-41.98 513.02-39.94L513.02-39.94L513.02-39.94Q510.08-37.89 510.08-34.24L510.08-34.24L510.08-34.24Q510.08-31.94 511.55-30.37L511.55-30.37L511.55-30.37Q513.02-28.80 515.17-27.84L515.17-27.84L515.17-27.84Q517.31-26.88 521.15-25.54L521.15-25.54L521.15-25.54Q525.82-23.94 528.70-22.56L528.70-22.56L528.70-22.56Q531.58-21.18 533.60-18.66L533.60-18.66L533.60-18.66Q535.62-16.13 535.62-12.29L535.62-12.29L535.62-12.29Q535.62-6.40 531.87-2.85L531.87-2.85L531.87-2.85Q528.13 0.70 520.32 0.70L520.32 0.70L520.32 0.70Q515.58 0.70 512.22-1.06L512.22-1.06L512.22-1.06Q508.86-2.82 507.10-5.60L507.10-5.60L507.10-5.60Q505.34-8.38 505.22-11.39L505.22-11.39L508.86-11.39ZM543.74 0L543.74-44.80L565.12-44.80L565.12-41.47L547.33-41.47L547.33-26.43L559.55-26.43L558.34-22.91L547.33-22.91L547.33-3.20L564.99-3.20L564.99 0L543.74 0ZM601.41 0L577.09-38.21L577.09 0L573.50 0L573.50-44.80L577.09-44.80L601.41-6.59L601.41-44.80L604.99-44.80L604.99 0L601.41 0ZM639.36 0L634.24-15.68L619.65-15.68L614.66 0L610.88 0L625.22-44.80L628.61-44.80L643.20 0L639.36 0ZM626.88-39.23L620.67-19.20L633.28-19.20L626.88-39.23ZM652.35 0L652.35-41.54L648.06-41.66L648.06-44.80L655.94-44.80L655.94 0L652.35 0ZM663.62-22.91L663.62-26.43L684.10-26.43L684.10-22.91L663.62-22.91ZM714.82 0L713.92-2.62L713.92-2.62Q710.59 0.64 704.64 0.64L704.64 0.64L704.64 0.64Q701.06 0.64 697.98-0.70L697.98-0.70L697.98-0.70Q694.91-2.05 693.02-4.93L693.02-4.93L693.02-4.93Q691.14-7.81 691.14-12.10L691.14-12.10L691.14-32.19L691.14-32.19Q691.14-36.67 692.58-39.39L692.58-39.39L692.58-39.39Q694.02-42.11 696.70-43.78L696.70-43.78L696.70-43.78Q699.52-45.38 703.62-45.38L703.62-45.38L703.62-45.38Q708.61-45.38 712.64-43.26L712.64-43.26L711.62-40.83L711.62-40.83Q707.97-42.18 704.70-42.18L704.70-42.18L704.70-42.18Q700.80-42.18 697.76-40.26L697.76-40.26L697.76-40.26Q694.72-38.34 694.72-32.77L694.72-32.77L694.72-11.97L694.72-11.97Q694.72-7.68 697.50-5.25L697.50-5.25L697.50-5.25Q700.29-2.82 704.58-2.82L704.58-2.82L704.58-2.82Q708.93-2.82 711.49-5.31L711.49-5.31L711.49-5.31Q714.05-7.81 714.05-11.90L714.05-11.90L714.05-15.68L709.82-15.68L708.61-19.20L717.44-19.20L717.44 0L714.82 0ZM750.59 0L745.47-15.68L730.88-15.68L725.89 0L722.11 0L736.45-44.80L739.84-44.80L754.43 0L750.59 0ZM738.11-39.23L731.90-19.20L744.51-19.20L738.11-39.23ZM761.09-11.39L761.09-11.39Q761.28-9.22 762.72-7.23L762.72-7.23L762.72-7.23Q764.16-5.25 766.69-4L766.69-4L766.69-4Q769.22-2.75 772.48-2.75L772.48-2.75L772.48-2.75Q777.41-2.75 780.70-4.96L780.70-4.96L780.70-4.96Q784-7.17 784-11.97L784-11.97L784-11.97Q784-14.78 782.40-16.67L782.40-16.67L782.40-16.67Q780.80-18.56 778.43-19.68L778.43-19.68L778.43-19.68Q776.06-20.80 771.97-22.27L771.97-22.27L771.97-22.27Q767.55-23.81 764.90-25.12L764.90-25.12L764.90-25.12Q762.24-26.43 760.42-28.67L760.42-28.67L760.42-28.67Q758.59-30.91 758.59-34.43L758.59-34.43L758.59-34.43Q758.59-37.25 760.19-39.78L760.19-39.78L760.19-39.78Q761.79-42.30 765.02-43.87L765.02-43.87L765.02-43.87Q768.26-45.44 772.99-45.44L772.99-45.44L772.99-45.44Q776.13-45.44 778.18-44.99L778.18-44.99L778.18-44.99Q780.22-44.54 782.34-43.52L782.34-43.52L781.25-40.13L781.25-40.13Q777.60-41.98 773.12-41.98L773.12-41.98L773.12-41.98Q768.19-41.98 765.25-39.94L765.25-39.94L765.25-39.94Q762.30-37.89 762.30-34.24L762.30-34.24L762.30-34.24Q762.30-31.94 763.78-30.37L763.78-30.37L763.78-30.37Q765.25-28.80 767.39-27.84L767.39-27.84L767.39-27.84Q769.54-26.88 773.38-25.54L773.38-25.54L773.38-25.54Q778.05-23.94 780.93-22.56L780.93-22.56L780.93-22.56Q783.81-21.18 785.82-18.66L785.82-18.66L785.82-18.66Q787.84-16.13 787.84-12.29L787.84-12.29L787.84-12.29Q787.84-6.40 784.10-2.85L784.10-2.85L784.10-2.85Q780.35 0.70 772.54 0.70L772.54 0.70L772.54 0.70Q767.81 0.70 764.45-1.06L764.45-1.06L764.45-1.06Q761.09-2.82 759.33-5.60L759.33-5.60L759.33-5.60Q757.57-8.38 757.44-11.39L757.44-11.39L761.09-11.39ZM795.97 0L795.97-44.80L811.71-44.80L811.71-44.80Q817.79-44.80 820.77-41.09L820.77-41.09L820.77-41.09Q823.74-37.38 823.74-31.10L823.74-31.10L823.74-31.10Q823.74-27.07 823.10-23.84L823.10-23.84L823.10-23.84Q822.46-20.61 819.90-18.14L819.90-18.14L819.90-18.14Q817.34-15.68 812.16-15.68L812.16-15.68L799.55-15.68L799.55 0L795.97 0ZM812.22-19.20L812.22-19.20Q815.81-19.20 817.57-21.12L817.57-21.12L817.57-21.12Q819.33-23.04 819.74-25.47L819.74-25.47L819.74-25.47Q820.16-27.90 820.16-30.91L820.16-30.91L820.16-30.91Q820.16-36.16 817.98-38.78L817.98-38.78L817.98-38.78Q815.81-41.41 811.97-41.41L811.97-41.41L799.55-41.41L799.55-19.20L812.22-19.20ZM855.10 0L849.98-15.68L835.39-15.68L830.40 0L826.62 0L840.96-44.80L844.35-44.80L858.94 0L855.10 0ZM842.62-39.23L836.42-19.20L849.02-19.20L842.62-39.23ZM888.77 0L883.33-15.87L883.33-15.87Q882.18-15.68 880.77-15.68L880.77-15.68L868.16-15.68L868.16 0L864.58 0L864.58-44.80L880.32-44.80L880.32-44.80Q886.40-44.80 889.38-41.09L889.38-41.09L889.38-41.09Q892.35-37.38 892.35-31.10L892.35-31.10L892.35-31.10Q892.35-26.30 891.30-22.59L891.30-22.59L891.30-22.59Q890.24-18.88 886.72-16.96L886.72-16.96L892.42 0L888.77 0ZM880.83-19.20L880.83-19.20Q884.42-19.20 886.18-21.12L886.18-21.12L886.18-21.12Q887.94-23.04 888.35-25.47L888.35-25.47L888.35-25.47Q888.77-27.90 888.77-30.91L888.77-30.91L888.77-30.91Q888.77-36.16 886.59-38.78L886.59-38.78L886.59-38.78Q884.42-41.41 880.58-41.41L880.58-41.41L868.16-41.41L868.16-19.20L880.83-19.20ZM942.66 0L937.22-15.87L937.22-15.87Q936.06-15.68 934.66-15.68L934.66-15.68L922.05-15.68L922.05 0L918.46 0L918.46-44.80L934.21-44.80L934.21-44.80Q940.29-44.80 943.26-41.09L943.26-41.09L943.26-41.09Q946.24-37.38 946.24-31.10L946.24-31.10L946.24-31.10Q946.24-26.30 945.18-22.59L945.18-22.59L945.18-22.59Q944.13-18.88 940.61-16.96L940.61-16.96L946.30 0L942.66 0ZM934.72-19.20L934.72-19.20Q938.30-19.20 940.06-21.12L940.06-21.12L940.06-21.12Q941.82-23.04 942.24-25.47L942.24-25.47L942.24-25.47Q942.66-27.90 942.66-30.91L942.66-30.91L942.66-30.91Q942.66-36.16 940.48-38.78L940.48-38.78L940.48-38.78Q938.30-41.41 934.46-41.41L934.46-41.41L922.05-41.41L922.05-19.20L934.72-19.20ZM958.08 0L958.08-41.54L953.79-41.66L953.79-44.80L961.66-44.80L961.66 0L958.08 0ZM993.79-1.47L993.79-1.47Q988.10 0.64 983.17 0.64L983.17 0.64L983.17 0.64Q977.60 0.64 974.14-2.30L974.14-2.30L974.14-2.30Q970.69-5.25 970.69-11.71L970.69-11.71L970.69-32.26L970.69-32.26Q970.69-37.12 972.06-39.62L972.06-39.62L972.06-39.62Q973.44-42.11 976.26-43.84L976.26-43.84L976.26-43.84Q979.07-45.44 983.17-45.44L983.17-45.44L983.17-45.44Q988.16-45.44 992.19-43.33L992.19-43.33L991.17-40.90L991.17-40.90Q987.52-42.24 984.26-42.24L984.26-42.24L984.26-42.24Q980.35-42.24 977.31-40.32L977.31-40.32L977.31-40.32Q974.27-38.40 974.27-32.83L974.27-32.83L974.27-11.84L974.27-11.84Q974.27-7.42 976.58-5.02L976.58-5.02L976.58-5.02Q978.88-2.62 983.49-2.62L983.49-2.62L983.49-2.62Q987.52-2.62 993.02-4.48L993.02-4.48L993.79-1.47ZM1023.62 0L1018.50-15.68L1003.90-15.68L998.91 0L995.14 0L1009.47-44.80L1012.86-44.80L1027.46 0L1023.62 0ZM1011.14-39.23L1004.93-19.20L1017.54-19.20L1011.14-39.23ZM1057.28 0L1051.84-15.87L1051.84-15.87Q1050.69-15.68 1049.28-15.68L1049.28-15.68L1036.67-15.68L1036.67 0L1033.09 0L1033.09-44.80L1048.83-44.80L1048.83-44.80Q1054.91-44.80 1057.89-41.09L1057.89-41.09L1057.89-41.09Q1060.86-37.38 1060.86-31.10L1060.86-31.10L1060.86-31.10Q1060.86-26.30 1059.81-22.59L1059.81-22.59L1059.81-22.59Q1058.75-18.88 1055.23-16.96L1055.23-16.96L1060.93 0L1057.28 0ZM1049.34-19.20L1049.34-19.20Q1052.93-19.20 1054.69-21.12L1054.69-21.12L1054.69-21.12Q1056.45-23.04 1056.86-25.47L1056.86-25.47L1056.86-25.47Q1057.28-27.90 1057.28-30.91L1057.28-30.91L1057.28-30.91Q1057.28-36.16 1055.10-38.78L1055.10-38.78L1055.10-38.78Q1052.93-41.41 1049.09-41.41L1049.09-41.41L1036.67-41.41L1036.67-19.20L1049.34-19.20ZM1069.18 0L1069.18-44.86L1081.22-44.86L1081.22-44.86Q1088.45-44.86 1092.26-40.90L1092.26-40.90L1092.26-40.90Q1096.06-36.93 1096.06-30.34L1096.06-30.34L1096.06-12.80L1096.06-12.80Q1096.06 0 1082.50 0L1082.50 0L1069.18 0ZM1092.48-30.98L1092.48-30.98Q1092.48-34.62 1090.91-37.02L1090.91-37.02L1090.91-37.02Q1089.34-39.42 1086.91-40.51L1086.91-40.51L1086.91-40.51Q1084.48-41.60 1081.86-41.60L1081.86-41.60L1072.77-41.60L1072.77-3.20L1081.47-3.20L1081.47-3.20Q1086.14-3.20 1089.31-5.02L1089.31-5.02L1089.31-5.02Q1092.48-6.85 1092.48-12.16L1092.48-12.16L1092.48-30.98ZM1131.97-11.84L1131.97-11.84Q1131.97-5.38 1128.03-2.34L1128.03-2.34L1128.03-2.34Q1124.10 0.70 1118.59 0.70L1118.59 0.70L1118.59 0.70Q1115.14 0.70 1112.06-0.54L1112.06-0.54L1112.06-0.54Q1108.99-1.79 1107.04-4.61L1107.04-4.61L1107.04-4.61Q1105.09-7.42 1105.09-11.84L1105.09-11.84L1105.09-32.45L1105.09-32.45Q1105.09-39.04 1108.70-42.43L1108.70-42.43L1108.70-42.43Q1112.32-45.82 1118.66-45.82L1118.66-45.82L1118.66-45.82Q1124.99-45.82 1128.48-42.24L1128.48-42.24L1128.48-42.24Q1131.97-38.66 1131.97-32.38L1131.97-32.38L1131.97-11.84ZM1128.45-33.02L1128.45-33.02Q1128.45-37.70 1125.73-40.06L1125.73-40.06L1125.73-40.06Q1123.01-42.43 1118.53-42.43L1118.53-42.43L1118.53-42.43Q1114.05-42.43 1111.36-40.06L1111.36-40.06L1111.36-40.06Q1108.67-37.70 1108.67-33.02L1108.67-33.02L1108.67-11.90L1108.67-11.90Q1108.67-7.36 1111.46-5.02L1111.46-5.02L1111.46-5.02Q1114.24-2.69 1118.53-2.69L1118.53-2.69L1118.53-2.69Q1122.88-2.69 1125.66-4.96L1125.66-4.96L1125.66-4.96Q1128.45-7.23 1128.45-11.97L1128.45-11.97L1128.45-33.02ZM1154.88 0L1154.88 0Q1156.99 0 1158.56-1.73L1158.56-1.73L1158.56-1.73Q1160.13-3.46 1160.13-7.30L1160.13-7.30L1160.13-41.54L1155.84-41.66L1155.84-44.80L1163.78-44.80L1163.78-7.55L1163.78-7.55Q1163.78-2.82 1161.63-0.22L1161.63-0.22L1161.63-0.22Q1159.49 2.37 1155.71 2.37L1155.71 2.37L1154.88 0ZM1194.62-44.86L1198.21-44.86L1198.21-11.90L1198.21-11.90Q1198.21-5.44 1194.27-2.50L1194.27-2.50L1194.27-2.50Q1190.34 0.45 1184.77 0.45L1184.77 0.45L1184.77 0.45Q1179.20 0.45 1175.23-2.50L1175.23-2.50L1175.23-2.50Q1171.26-5.44 1171.26-11.90L1171.26-11.90L1171.26-44.86L1174.85-44.86L1174.85-11.39L1174.85-11.39Q1174.85-7.49 1177.70-5.12L1177.70-5.12L1177.70-5.12Q1180.54-2.75 1184.70-2.75L1184.70-2.75L1184.70-2.75Q1188.86-2.75 1191.74-5.12L1191.74-5.12L1191.74-5.12Q1194.62-7.49 1194.62-11.39L1194.62-11.39L1194.62-44.86ZM1235.65 0L1211.33-38.21L1211.33 0L1207.74 0L1207.74-44.80L1211.33-44.80L1235.65-6.59L1235.65-44.80L1239.23-44.80L1239.23 0L1235.65 0ZM1252.86 0L1252.86-41.54L1248.58-41.66L1248.58-44.80L1256.45-44.80L1256.45 0L1252.86 0ZM1292.16-11.84L1292.16-11.84Q1292.16-5.38 1288.22-2.34L1288.22-2.34L1288.22-2.34Q1284.29 0.70 1278.78 0.70L1278.78 0.70L1278.78 0.70Q1275.33 0.70 1272.26-0.54L1272.26-0.54L1272.26-0.54Q1269.18-1.79 1267.23-4.61L1267.23-4.61L1267.23-4.61Q1265.28-7.42 1265.28-11.84L1265.28-11.84L1265.28-32.45L1265.28-32.45Q1265.28-39.04 1268.90-42.43L1268.90-42.43L1268.90-42.43Q1272.51-45.82 1278.85-45.82L1278.85-45.82L1278.85-45.82Q1285.18-45.82 1288.67-42.24L1288.67-42.24L1288.67-42.24Q1292.16-38.66 1292.16-32.38L1292.16-32.38L1292.16-11.84ZM1288.64-33.02L1288.64-33.02Q1288.64-37.70 1285.92-40.06L1285.92-40.06L1285.92-40.06Q1283.20-42.43 1278.72-42.43L1278.72-42.43L1278.72-42.43Q1274.24-42.43 1271.55-40.06L1271.55-40.06L1271.55-40.06Q1268.86-37.70 1268.86-33.02L1268.86-33.02L1268.86-11.90L1268.86-11.90Q1268.86-7.36 1271.65-5.02L1271.65-5.02L1271.65-5.02Q1274.43-2.69 1278.72-2.69L1278.72-2.69L1278.72-2.69Q1283.07-2.69 1285.86-4.96L1285.86-4.96L1285.86-4.96Q1288.64-7.23 1288.64-11.97L1288.64-11.97L1288.64-33.02ZM1325.57 0L1320.13-15.87L1320.13-15.87Q1318.98-15.68 1317.57-15.68L1317.57-15.68L1304.96-15.68L1304.96 0L1301.38 0L1301.38-44.80L1317.12-44.80L1317.12-44.80Q1323.20-44.80 1326.18-41.09L1326.18-41.09L1326.18-41.09Q1329.15-37.38 1329.15-31.10L1329.15-31.10L1329.15-31.10Q1329.15-26.30 1328.10-22.59L1328.10-22.59L1328.10-22.59Q1327.04-18.88 1323.52-16.96L1323.52-16.96L1329.22 0L1325.57 0ZM1317.63-19.20L1317.63-19.20Q1321.22-19.20 1322.98-21.12L1322.98-21.12L1322.98-21.12Q1324.74-23.04 1325.15-25.47L1325.15-25.47L1325.15-25.47Q1325.57-27.90 1325.57-30.91L1325.57-30.91L1325.57-30.91Q1325.57-36.16 1323.39-38.78L1323.39-38.78L1323.39-38.78Q1321.22-41.41 1317.38-41.41L1317.38-41.41L1304.96-41.41L1304.96-19.20L1317.63-19.20Z" fill="url(#editing-gradient-gradient)"></path></g></g><style>text {
  font-size: 64px;
  font-family: Arial Black;
  dominant-baseline: central;
  text-anchor: middle;
}</style></svg>